<mxfile host="app.diagrams.net" modified="2020-11-02T20:54:53.610Z" agent="5.0 (Windows NT 10.0; Win64; x64) AppleWebKit/537.36 (KHTML, like Gecko) Chrome/86.0.4240.111 Safari/537.36" etag="gPpbdkI5UYEnlxN-hyoP" version="13.8.8" type="github">
  <diagram id="JFlCuwMhZZcMJILRrFdY" name="Page-1">
    <mxGraphModel dx="1310" dy="764" grid="1" gridSize="10" guides="1" tooltips="1" connect="1" arrows="1" fold="1" page="1" pageScale="1" pageWidth="2336" pageHeight="1654" math="0" shadow="0">
      <root>
        <mxCell id="0" />
        <mxCell id="1" parent="0" />
        <mxCell id="4J9gVVPXhBhF94vH3yUa-1" value="PartnerDetail" style="swimlane;fontStyle=1;align=center;verticalAlign=top;childLayout=stackLayout;horizontal=1;startSize=26;horizontalStack=0;resizeParent=1;resizeParentMax=0;resizeLast=0;collapsible=1;marginBottom=0;" vertex="1" parent="1">
          <mxGeometry x="80" y="410" width="320" height="294" as="geometry" />
        </mxCell>
        <mxCell id="4J9gVVPXhBhF94vH3yUa-42" value="- ProductId : int" style="text;strokeColor=none;fillColor=none;align=left;verticalAlign=top;spacingLeft=4;spacingRight=4;overflow=hidden;rotatable=0;points=[[0,0.5],[1,0.5]];portConstraint=eastwest;" vertex="1" parent="4J9gVVPXhBhF94vH3yUa-1">
          <mxGeometry y="26" width="320" height="26" as="geometry" />
        </mxCell>
        <mxCell id="4J9gVVPXhBhF94vH3yUa-6" value="- Alias : string" style="text;strokeColor=none;fillColor=none;align=left;verticalAlign=top;spacingLeft=4;spacingRight=4;overflow=hidden;rotatable=0;points=[[0,0.5],[1,0.5]];portConstraint=eastwest;" vertex="1" parent="4J9gVVPXhBhF94vH3yUa-1">
          <mxGeometry y="52" width="320" height="26" as="geometry" />
        </mxCell>
        <mxCell id="4J9gVVPXhBhF94vH3yUa-7" value="- IsParentPartner : bool" style="text;strokeColor=none;fillColor=none;align=left;verticalAlign=top;spacingLeft=4;spacingRight=4;overflow=hidden;rotatable=0;points=[[0,0.5],[1,0.5]];portConstraint=eastwest;" vertex="1" parent="4J9gVVPXhBhF94vH3yUa-1">
          <mxGeometry y="78" width="320" height="26" as="geometry" />
        </mxCell>
        <mxCell id="4J9gVVPXhBhF94vH3yUa-8" value="- ParentPartnerId : int[0..1]" style="text;strokeColor=none;fillColor=none;align=left;verticalAlign=top;spacingLeft=4;spacingRight=4;overflow=hidden;rotatable=0;points=[[0,0.5],[1,0.5]];portConstraint=eastwest;" vertex="1" parent="4J9gVVPXhBhF94vH3yUa-1">
          <mxGeometry y="104" width="320" height="26" as="geometry" />
        </mxCell>
        <mxCell id="4J9gVVPXhBhF94vH3yUa-3" value="" style="line;strokeWidth=1;fillColor=none;align=left;verticalAlign=middle;spacingTop=-1;spacingLeft=3;spacingRight=3;rotatable=0;labelPosition=right;points=[];portConstraint=eastwest;" vertex="1" parent="4J9gVVPXhBhF94vH3yUa-1">
          <mxGeometry y="130" width="320" height="8" as="geometry" />
        </mxCell>
        <mxCell id="4J9gVVPXhBhF94vH3yUa-39" value="+ PartnerDetail()" style="text;strokeColor=none;fillColor=none;align=left;verticalAlign=top;spacingLeft=4;spacingRight=4;overflow=hidden;rotatable=0;points=[[0,0.5],[1,0.5]];portConstraint=eastwest;" vertex="1" parent="4J9gVVPXhBhF94vH3yUa-1">
          <mxGeometry y="138" width="320" height="26" as="geometry" />
        </mxCell>
        <mxCell id="4J9gVVPXhBhF94vH3yUa-57" value="+ IsParentPartner(parentPartnerDetailId) : bool" style="text;strokeColor=none;fillColor=none;align=left;verticalAlign=top;spacingLeft=4;spacingRight=4;overflow=hidden;rotatable=0;points=[[0,0.5],[1,0.5]];portConstraint=eastwest;" vertex="1" parent="4J9gVVPXhBhF94vH3yUa-1">
          <mxGeometry y="164" width="320" height="26" as="geometry" />
        </mxCell>
        <mxCell id="4J9gVVPXhBhF94vH3yUa-45" value="+ getProductId() : int" style="text;strokeColor=none;fillColor=none;align=left;verticalAlign=top;spacingLeft=4;spacingRight=4;overflow=hidden;rotatable=0;points=[[0,0.5],[1,0.5]];portConstraint=eastwest;" vertex="1" parent="4J9gVVPXhBhF94vH3yUa-1">
          <mxGeometry y="190" width="320" height="26" as="geometry" />
        </mxCell>
        <mxCell id="4J9gVVPXhBhF94vH3yUa-46" value="+ getAlias() : string" style="text;strokeColor=none;fillColor=none;align=left;verticalAlign=top;spacingLeft=4;spacingRight=4;overflow=hidden;rotatable=0;points=[[0,0.5],[1,0.5]];portConstraint=eastwest;" vertex="1" parent="4J9gVVPXhBhF94vH3yUa-1">
          <mxGeometry y="216" width="320" height="26" as="geometry" />
        </mxCell>
        <mxCell id="4J9gVVPXhBhF94vH3yUa-47" value="+ getIsParentPartner() : bool" style="text;strokeColor=none;fillColor=none;align=left;verticalAlign=top;spacingLeft=4;spacingRight=4;overflow=hidden;rotatable=0;points=[[0,0.5],[1,0.5]];portConstraint=eastwest;" vertex="1" parent="4J9gVVPXhBhF94vH3yUa-1">
          <mxGeometry y="242" width="320" height="26" as="geometry" />
        </mxCell>
        <mxCell id="4J9gVVPXhBhF94vH3yUa-48" value="+ getParentPartnerId() : int" style="text;strokeColor=none;fillColor=none;align=left;verticalAlign=top;spacingLeft=4;spacingRight=4;overflow=hidden;rotatable=0;points=[[0,0.5],[1,0.5]];portConstraint=eastwest;" vertex="1" parent="4J9gVVPXhBhF94vH3yUa-1">
          <mxGeometry y="268" width="320" height="26" as="geometry" />
        </mxCell>
        <mxCell id="4J9gVVPXhBhF94vH3yUa-9" value="PartnerDetailWebController" style="swimlane;fontStyle=1;align=center;verticalAlign=top;childLayout=stackLayout;horizontal=1;startSize=26;horizontalStack=0;resizeParent=1;resizeParentMax=0;resizeLast=0;collapsible=1;marginBottom=0;" vertex="1" parent="1">
          <mxGeometry x="680" y="836" width="360" height="112" as="geometry" />
        </mxCell>
        <mxCell id="4J9gVVPXhBhF94vH3yUa-10" value="- partner : PartnerDetailWeb" style="text;strokeColor=none;fillColor=none;align=left;verticalAlign=top;spacingLeft=4;spacingRight=4;overflow=hidden;rotatable=0;points=[[0,0.5],[1,0.5]];portConstraint=eastwest;" vertex="1" parent="4J9gVVPXhBhF94vH3yUa-9">
          <mxGeometry y="26" width="360" height="26" as="geometry" />
        </mxCell>
        <mxCell id="4J9gVVPXhBhF94vH3yUa-11" value="" style="line;strokeWidth=1;fillColor=none;align=left;verticalAlign=middle;spacingTop=-1;spacingLeft=3;spacingRight=3;rotatable=0;labelPosition=right;points=[];portConstraint=eastwest;" vertex="1" parent="4J9gVVPXhBhF94vH3yUa-9">
          <mxGeometry y="52" width="360" height="8" as="geometry" />
        </mxCell>
        <mxCell id="4J9gVVPXhBhF94vH3yUa-60" value="+ PartnerDetailWebController()" style="text;strokeColor=none;fillColor=none;align=left;verticalAlign=top;spacingLeft=4;spacingRight=4;overflow=hidden;rotatable=0;points=[[0,0.5],[1,0.5]];portConstraint=eastwest;" vertex="1" parent="4J9gVVPXhBhF94vH3yUa-9">
          <mxGeometry y="60" width="360" height="26" as="geometry" />
        </mxCell>
        <mxCell id="4J9gVVPXhBhF94vH3yUa-12" value="+ getPartnerDetailWebById(partnerDetailId) : PartnerDetailWeb" style="text;strokeColor=none;fillColor=none;align=left;verticalAlign=top;spacingLeft=4;spacingRight=4;overflow=hidden;rotatable=0;points=[[0,0.5],[1,0.5]];portConstraint=eastwest;" vertex="1" parent="4J9gVVPXhBhF94vH3yUa-9">
          <mxGeometry y="86" width="360" height="26" as="geometry" />
        </mxCell>
        <mxCell id="4J9gVVPXhBhF94vH3yUa-13" value="PartnerDetailWeb" style="swimlane;fontStyle=1;align=center;verticalAlign=top;childLayout=stackLayout;horizontal=1;startSize=26;horizontalStack=0;resizeParent=1;resizeParentMax=0;resizeLast=0;collapsible=1;marginBottom=0;" vertex="1" parent="1">
          <mxGeometry x="760" y="410" width="200" height="294" as="geometry" />
        </mxCell>
        <mxCell id="4J9gVVPXhBhF94vH3yUa-17" value="- HomeUrl : string" style="text;strokeColor=none;fillColor=none;align=left;verticalAlign=top;spacingLeft=4;spacingRight=4;overflow=hidden;rotatable=0;points=[[0,0.5],[1,0.5]];portConstraint=eastwest;" vertex="1" parent="4J9gVVPXhBhF94vH3yUa-13">
          <mxGeometry y="26" width="200" height="26" as="geometry" />
        </mxCell>
        <mxCell id="4J9gVVPXhBhF94vH3yUa-18" value="- DisplayName : string" style="text;strokeColor=none;fillColor=none;align=left;verticalAlign=top;spacingLeft=4;spacingRight=4;overflow=hidden;rotatable=0;points=[[0,0.5],[1,0.5]];portConstraint=eastwest;" vertex="1" parent="4J9gVVPXhBhF94vH3yUa-13">
          <mxGeometry y="52" width="200" height="26" as="geometry" />
        </mxCell>
        <mxCell id="4J9gVVPXhBhF94vH3yUa-20" value="- CompanyLogo : string" style="text;strokeColor=none;fillColor=none;align=left;verticalAlign=top;spacingLeft=4;spacingRight=4;overflow=hidden;rotatable=0;points=[[0,0.5],[1,0.5]];portConstraint=eastwest;" vertex="1" parent="4J9gVVPXhBhF94vH3yUa-13">
          <mxGeometry y="78" width="200" height="26" as="geometry" />
        </mxCell>
        <mxCell id="4J9gVVPXhBhF94vH3yUa-19" value="- AltText : string" style="text;strokeColor=none;fillColor=none;align=left;verticalAlign=top;spacingLeft=4;spacingRight=4;overflow=hidden;rotatable=0;points=[[0,0.5],[1,0.5]];portConstraint=eastwest;" vertex="1" parent="4J9gVVPXhBhF94vH3yUa-13">
          <mxGeometry y="104" width="200" height="26" as="geometry" />
        </mxCell>
        <mxCell id="4J9gVVPXhBhF94vH3yUa-15" value="" style="line;strokeWidth=1;fillColor=none;align=left;verticalAlign=middle;spacingTop=-1;spacingLeft=3;spacingRight=3;rotatable=0;labelPosition=right;points=[];portConstraint=eastwest;" vertex="1" parent="4J9gVVPXhBhF94vH3yUa-13">
          <mxGeometry y="130" width="200" height="8" as="geometry" />
        </mxCell>
        <mxCell id="4J9gVVPXhBhF94vH3yUa-56" value="+ PartnerDetailWeb" style="text;strokeColor=none;fillColor=none;align=left;verticalAlign=top;spacingLeft=4;spacingRight=4;overflow=hidden;rotatable=0;points=[[0,0.5],[1,0.5]];portConstraint=eastwest;" vertex="1" parent="4J9gVVPXhBhF94vH3yUa-13">
          <mxGeometry y="138" width="200" height="26" as="geometry" />
        </mxCell>
        <mxCell id="4J9gVVPXhBhF94vH3yUa-58" value="+ getHomeUrl() : string" style="text;strokeColor=none;fillColor=none;align=left;verticalAlign=top;spacingLeft=4;spacingRight=4;overflow=hidden;rotatable=0;points=[[0,0.5],[1,0.5]];portConstraint=eastwest;" vertex="1" parent="4J9gVVPXhBhF94vH3yUa-13">
          <mxGeometry y="164" width="200" height="26" as="geometry" />
        </mxCell>
        <mxCell id="4J9gVVPXhBhF94vH3yUa-16" value="+ getHomeUrl() : string" style="text;strokeColor=none;fillColor=none;align=left;verticalAlign=top;spacingLeft=4;spacingRight=4;overflow=hidden;rotatable=0;points=[[0,0.5],[1,0.5]];portConstraint=eastwest;" vertex="1" parent="4J9gVVPXhBhF94vH3yUa-13">
          <mxGeometry y="190" width="200" height="26" as="geometry" />
        </mxCell>
        <mxCell id="4J9gVVPXhBhF94vH3yUa-49" value="+ getDisplayName() : string" style="text;strokeColor=none;fillColor=none;align=left;verticalAlign=top;spacingLeft=4;spacingRight=4;overflow=hidden;rotatable=0;points=[[0,0.5],[1,0.5]];portConstraint=eastwest;" vertex="1" parent="4J9gVVPXhBhF94vH3yUa-13">
          <mxGeometry y="216" width="200" height="26" as="geometry" />
        </mxCell>
        <mxCell id="4J9gVVPXhBhF94vH3yUa-50" value="+ getCompanyLogo : string" style="text;strokeColor=none;fillColor=none;align=left;verticalAlign=top;spacingLeft=4;spacingRight=4;overflow=hidden;rotatable=0;points=[[0,0.5],[1,0.5]];portConstraint=eastwest;" vertex="1" parent="4J9gVVPXhBhF94vH3yUa-13">
          <mxGeometry y="242" width="200" height="26" as="geometry" />
        </mxCell>
        <mxCell id="4J9gVVPXhBhF94vH3yUa-51" value="+ getAltText : string" style="text;strokeColor=none;fillColor=none;align=left;verticalAlign=top;spacingLeft=4;spacingRight=4;overflow=hidden;rotatable=0;points=[[0,0.5],[1,0.5]];portConstraint=eastwest;" vertex="1" parent="4J9gVVPXhBhF94vH3yUa-13">
          <mxGeometry y="268" width="200" height="26" as="geometry" />
        </mxCell>
        <mxCell id="4J9gVVPXhBhF94vH3yUa-21" value="Partner" style="swimlane;fontStyle=3;align=center;verticalAlign=top;childLayout=stackLayout;horizontal=1;startSize=26;horizontalStack=0;resizeParent=1;resizeParentMax=0;resizeLast=0;collapsible=1;marginBottom=0;" vertex="1" parent="1">
          <mxGeometry x="350" y="160" width="250" height="86" as="geometry" />
        </mxCell>
        <mxCell id="4J9gVVPXhBhF94vH3yUa-22" value="- PartnerDetailId : int" style="text;strokeColor=none;fillColor=none;align=left;verticalAlign=top;spacingLeft=4;spacingRight=4;overflow=hidden;rotatable=0;points=[[0,0.5],[1,0.5]];portConstraint=eastwest;" vertex="1" parent="4J9gVVPXhBhF94vH3yUa-21">
          <mxGeometry y="26" width="250" height="26" as="geometry" />
        </mxCell>
        <mxCell id="4J9gVVPXhBhF94vH3yUa-23" value="" style="line;strokeWidth=1;fillColor=none;align=left;verticalAlign=middle;spacingTop=-1;spacingLeft=3;spacingRight=3;rotatable=0;labelPosition=right;points=[];portConstraint=eastwest;" vertex="1" parent="4J9gVVPXhBhF94vH3yUa-21">
          <mxGeometry y="52" width="250" height="8" as="geometry" />
        </mxCell>
        <mxCell id="4J9gVVPXhBhF94vH3yUa-24" value="+ getPartnerDetailId() : int" style="text;strokeColor=none;fillColor=none;align=left;verticalAlign=top;spacingLeft=4;spacingRight=4;overflow=hidden;rotatable=0;points=[[0,0.5],[1,0.5]];portConstraint=eastwest;fontStyle=2" vertex="1" parent="4J9gVVPXhBhF94vH3yUa-21">
          <mxGeometry y="60" width="250" height="26" as="geometry" />
        </mxCell>
        <mxCell id="4J9gVVPXhBhF94vH3yUa-28" value="" style="endArrow=block;endSize=10;endFill=0;shadow=0;strokeWidth=1;rounded=0;edgeStyle=elbowEdgeStyle;elbow=vertical;" edge="1" parent="1" source="4J9gVVPXhBhF94vH3yUa-1" target="4J9gVVPXhBhF94vH3yUa-21">
          <mxGeometry width="160" relative="1" as="geometry">
            <mxPoint x="210" y="630" as="sourcePoint" />
            <mxPoint x="387" y="298" as="targetPoint" />
            <Array as="points">
              <mxPoint x="405" y="370" />
            </Array>
          </mxGeometry>
        </mxCell>
        <mxCell id="4J9gVVPXhBhF94vH3yUa-29" value="" style="endArrow=block;endSize=10;endFill=0;shadow=0;strokeWidth=1;rounded=0;edgeStyle=elbowEdgeStyle;elbow=vertical;" edge="1" parent="1" source="4J9gVVPXhBhF94vH3yUa-13" target="4J9gVVPXhBhF94vH3yUa-21">
          <mxGeometry width="160" relative="1" as="geometry">
            <mxPoint x="420" y="466" as="sourcePoint" />
            <mxPoint x="405" y="210" as="targetPoint" />
            <Array as="points">
              <mxPoint x="550" y="370" />
              <mxPoint x="560" y="730" />
            </Array>
          </mxGeometry>
        </mxCell>
        <mxCell id="4J9gVVPXhBhF94vH3yUa-32" value="1..*" style="endArrow=none;html=1;endSize=12;startArrow=diamondThin;startSize=14;startFill=1;edgeStyle=orthogonalEdgeStyle;align=left;verticalAlign=bottom;endFill=0;" edge="1" parent="1" source="4J9gVVPXhBhF94vH3yUa-9" target="4J9gVVPXhBhF94vH3yUa-13">
          <mxGeometry x="0.9091" y="-110" relative="1" as="geometry">
            <mxPoint x="80" y="390" as="sourcePoint" />
            <mxPoint x="325" y="360" as="targetPoint" />
            <Array as="points">
              <mxPoint x="850" y="710" />
              <mxPoint x="850" y="710" />
            </Array>
            <mxPoint x="-105" y="110" as="offset" />
          </mxGeometry>
        </mxCell>
        <mxCell id="4J9gVVPXhBhF94vH3yUa-33" value="PartnerDetailController" style="swimlane;fontStyle=1;align=center;verticalAlign=top;childLayout=stackLayout;horizontal=1;startSize=26;horizontalStack=0;resizeParent=1;resizeParentMax=0;resizeLast=0;collapsible=1;marginBottom=0;" vertex="1" parent="1">
          <mxGeometry x="40" y="810" width="370" height="164" as="geometry" />
        </mxCell>
        <mxCell id="4J9gVVPXhBhF94vH3yUa-34" value="- partner : PartnerDetail" style="text;strokeColor=none;fillColor=none;align=left;verticalAlign=top;spacingLeft=4;spacingRight=4;overflow=hidden;rotatable=0;points=[[0,0.5],[1,0.5]];portConstraint=eastwest;" vertex="1" parent="4J9gVVPXhBhF94vH3yUa-33">
          <mxGeometry y="26" width="370" height="26" as="geometry" />
        </mxCell>
        <mxCell id="4J9gVVPXhBhF94vH3yUa-54" value="- children : PartnerDetail[*]" style="text;strokeColor=none;fillColor=none;align=left;verticalAlign=top;spacingLeft=4;spacingRight=4;overflow=hidden;rotatable=0;points=[[0,0.5],[1,0.5]];portConstraint=eastwest;" vertex="1" parent="4J9gVVPXhBhF94vH3yUa-33">
          <mxGeometry y="52" width="370" height="26" as="geometry" />
        </mxCell>
        <mxCell id="4J9gVVPXhBhF94vH3yUa-35" value="" style="line;strokeWidth=1;fillColor=none;align=left;verticalAlign=middle;spacingTop=-1;spacingLeft=3;spacingRight=3;rotatable=0;labelPosition=right;points=[];portConstraint=eastwest;" vertex="1" parent="4J9gVVPXhBhF94vH3yUa-33">
          <mxGeometry y="78" width="370" height="8" as="geometry" />
        </mxCell>
        <mxCell id="4J9gVVPXhBhF94vH3yUa-41" value="+ PartnerDetailController()" style="text;strokeColor=none;fillColor=none;align=left;verticalAlign=top;spacingLeft=4;spacingRight=4;overflow=hidden;rotatable=0;points=[[0,0.5],[1,0.5]];portConstraint=eastwest;" vertex="1" parent="4J9gVVPXhBhF94vH3yUa-33">
          <mxGeometry y="86" width="370" height="26" as="geometry" />
        </mxCell>
        <mxCell id="4J9gVVPXhBhF94vH3yUa-59" value="+ getPartnerDetailsByPartnerId(partnerDetailId) : partner" style="text;strokeColor=none;fillColor=none;align=left;verticalAlign=top;spacingLeft=4;spacingRight=4;overflow=hidden;rotatable=0;points=[[0,0.5],[1,0.5]];portConstraint=eastwest;" vertex="1" parent="4J9gVVPXhBhF94vH3yUa-33">
          <mxGeometry y="112" width="370" height="26" as="geometry" />
        </mxCell>
        <mxCell id="4J9gVVPXhBhF94vH3yUa-36" value="+ getChildrenByPartnerId(parentPartnerDetailId) : children" style="text;strokeColor=none;fillColor=none;align=left;verticalAlign=top;spacingLeft=4;spacingRight=4;overflow=hidden;rotatable=0;points=[[0,0.5],[1,0.5]];portConstraint=eastwest;" vertex="1" parent="4J9gVVPXhBhF94vH3yUa-33">
          <mxGeometry y="138" width="370" height="26" as="geometry" />
        </mxCell>
        <mxCell id="4J9gVVPXhBhF94vH3yUa-37" value="1..*" style="endArrow=none;html=1;endSize=12;startArrow=diamondThin;startSize=14;startFill=1;edgeStyle=orthogonalEdgeStyle;align=left;verticalAlign=bottom;endFill=0;" edge="1" parent="1" source="4J9gVVPXhBhF94vH3yUa-33" target="4J9gVVPXhBhF94vH3yUa-1">
          <mxGeometry x="-0.6226" y="-14" relative="1" as="geometry">
            <mxPoint x="705" y="246" as="sourcePoint" />
            <mxPoint x="280" y="360" as="targetPoint" />
            <Array as="points">
              <mxPoint x="240" y="790" />
              <mxPoint x="240" y="790" />
            </Array>
            <mxPoint x="-4" y="10" as="offset" />
          </mxGeometry>
        </mxCell>
        <mxCell id="4J9gVVPXhBhF94vH3yUa-55" style="edgeStyle=orthogonalEdgeStyle;rounded=0;orthogonalLoop=1;jettySize=auto;html=1;startArrow=none;startFill=0;endArrow=none;endFill=0;" edge="1" parent="1" source="4J9gVVPXhBhF94vH3yUa-52" target="4J9gVVPXhBhF94vH3yUa-36">
          <mxGeometry relative="1" as="geometry" />
        </mxCell>
        <mxCell id="4J9gVVPXhBhF94vH3yUa-52" value="{isParentPartner(IsParentPartner) = true}" style="shape=note2;boundedLbl=1;whiteSpace=wrap;html=1;size=25;verticalAlign=top;align=center;" vertex="1" parent="1">
          <mxGeometry x="420" y="990" width="260" height="60" as="geometry" />
        </mxCell>
        <mxCell id="4J9gVVPXhBhF94vH3yUa-53" value="&lt;&lt;constraint&gt;&gt;" style="resizeWidth=1;part=1;strokeColor=none;fillColor=none;align=left;spacingLeft=5;" vertex="1" parent="4J9gVVPXhBhF94vH3yUa-52">
          <mxGeometry width="260" height="25" relative="1" as="geometry" />
        </mxCell>
        <mxCell id="4J9gVVPXhBhF94vH3yUa-62" value="PartnerTableComponent" style="swimlane;fontStyle=1;align=center;verticalAlign=top;childLayout=stackLayout;horizontal=1;startSize=26;horizontalStack=0;resizeParent=1;resizeParentMax=0;resizeLast=0;collapsible=1;marginBottom=0;" vertex="1" parent="1">
          <mxGeometry x="1160" y="360" width="160" height="86" as="geometry" />
        </mxCell>
        <mxCell id="4J9gVVPXhBhF94vH3yUa-63" value="+ field: type" style="text;strokeColor=none;fillColor=none;align=left;verticalAlign=top;spacingLeft=4;spacingRight=4;overflow=hidden;rotatable=0;points=[[0,0.5],[1,0.5]];portConstraint=eastwest;" vertex="1" parent="4J9gVVPXhBhF94vH3yUa-62">
          <mxGeometry y="26" width="160" height="26" as="geometry" />
        </mxCell>
        <mxCell id="4J9gVVPXhBhF94vH3yUa-64" value="" style="line;strokeWidth=1;fillColor=none;align=left;verticalAlign=middle;spacingTop=-1;spacingLeft=3;spacingRight=3;rotatable=0;labelPosition=right;points=[];portConstraint=eastwest;" vertex="1" parent="4J9gVVPXhBhF94vH3yUa-62">
          <mxGeometry y="52" width="160" height="8" as="geometry" />
        </mxCell>
        <mxCell id="4J9gVVPXhBhF94vH3yUa-65" value="+ method(type): type" style="text;strokeColor=none;fillColor=none;align=left;verticalAlign=top;spacingLeft=4;spacingRight=4;overflow=hidden;rotatable=0;points=[[0,0.5],[1,0.5]];portConstraint=eastwest;" vertex="1" parent="4J9gVVPXhBhF94vH3yUa-62">
          <mxGeometry y="60" width="160" height="26" as="geometry" />
        </mxCell>
      </root>
    </mxGraphModel>
  </diagram>
</mxfile>
